<?xml version="1.0" encoding="UTF-8" standalone="no"?>
<!-- Created with Inkscape (http://www.inkscape.org/) -->

<svg
   xmlns:dc="http://purl.org/dc/elements/1.1/"
   xmlns:cc="http://creativecommons.org/ns#"
   xmlns:rdf="http://www.w3.org/1999/02/22-rdf-syntax-ns#"
   xmlns:svg="http://www.w3.org/2000/svg"
   xmlns="http://www.w3.org/2000/svg"
   xmlns:sodipodi="http://sodipodi.sourceforge.net/DTD/sodipodi-0.dtd"
   xmlns:inkscape="http://www.inkscape.org/namespaces/inkscape"
   width="500"
   height="1000"
   viewBox="0 0 500 1000"
   id="svg2"
   version="1.1"
   inkscape:version="0.91 r13725"
   sodipodi:docname="8BitFont.svg"
   style="enable-background:new">
  <defs
     id="defs4">
    <font
       horiz-adv-x="750"
       id="font6205"
       inkscape:label="8BitFont"
       horiz-origin-x="0"
       horiz-origin-y="0"
       vert-origin-x="45"
       vert-origin-y="90"
       vert-adv-y="90">
      <font-face
         units-per-em="750"
         id="font-face6207"
         font-family="8BitFont" />
      <missing-glyph
         d="M 0,1000 0,0 l 500,0 0,1000 -500,0 z"
         id="missing-glyph6209" />
      <glyph
         glyph-name="Space"
         id="glyph3535"
         unicode=" "
         d="M 249.99999,1100 Z" />
      <glyph
         glyph-name="!"
         id="glyph3537"
         unicode="!"
         d="m 0,500 0,-250 250,0 0,250 -250,0 z m 250,-250 0,-250 250,0 0,250 -250,0 z" />
      <glyph
         glyph-name="&quot;"
         id="glyph3539"
         unicode="&quot;"
         d="m 0,500 0,-250 500,0 0,250 -500,0 z" />
      <glyph
         glyph-name="#"
         id="glyph3541"
         unicode="#"
         d="m 0,500 0,-250 250,0 0,-250 250,0 0,500 -500,0 z" />
      <glyph
         glyph-name="$"
         id="glyph3543"
         unicode="$"
         d="m 250,750 0,-250 250,0 0,250 -250,0 z m 0,-250 -250,0 0,-250 250,0 0,250 z" />
      <glyph
         glyph-name="%"
         id="glyph3545"
         unicode="%"
         d="m 250,750 0,-250 250,0 0,250 -250,0 z m 0,-250 -250,0 0,-250 250,0 0,250 z m 0,-250 0,-250 250,0 0,250 -250,0 z" />
      <glyph
         glyph-name="&amp;"
         id="glyph3547"
         unicode="&amp;"
         d="m 250,750 0,-250 -250,0 0,-250 500,0 0,500 -250,0 z" />
      <glyph
         glyph-name="'"
         id="glyph3549"
         unicode="'"
         d="m 250,750 0,-250 -250,0 0,-250 250,0 0,-250 250,0 0,750 -250,0 z" />
      <glyph
         glyph-name="("
         id="glyph3551"
         unicode="("
         d="m 250,1000 0,-250 250,0 0,250 -250,0 z M 0,500 0,250 l 250,0 0,250 -250,0 z" />
      <glyph
         glyph-name=")"
         id="glyph3553"
         unicode=")"
         d="m 250,1000 0,-250 250,0 0,250 -250,0 z M 0,500 0,250 l 250,0 0,250 -250,0 z m 250,-250 0,-250 250,0 0,250 -250,0 z" />
      <glyph
         glyph-name="*"
         id="glyph3555"
         unicode="*"
         d="m 250,1000 0,-250 250,0 0,250 -250,0 z M 0,500 0,250 l 500,0 0,250 -500,0 z" />
      <glyph
         glyph-name="+"
         id="glyph3557"
         unicode="+"
         d="m 250,1000 0,-250 250,0 0,250 -250,0 z M 0,500 0,250 l 250,0 0,-250 250,0 0,500 -500,0 z" />
      <glyph
         glyph-name=","
         id="glyph3559"
         unicode=","
         d="m 250,1000 0,-500 250,0 0,500 -250,0 z m 0,-500 -250,0 0,-250 250,0 0,250 z" />
      <glyph
         glyph-name="-"
         id="glyph3561"
         unicode="-"
         d="m 250,1000 0,-500 250,0 0,500 -250,0 z m 0,-500 -250,0 0,-250 250,0 0,250 z m 0,-250 0,-250 250,0 0,250 -250,0 z" />
      <glyph
         glyph-name="."
         id="glyph3563"
         unicode="."
         d="m 250,1000 0,-500 -250,0 0,-250 500,0 0,750 -250,0 z" />
      <glyph
         glyph-name="/"
         id="glyph3565"
         unicode="/"
         d="m 250,1000 0,-500 -250,0 0,-250 250,0 0,-250 250,0 0,1000 -250,0 z" />
      <glyph
         glyph-name="0"
         id="glyph3567"
         unicode="0"
         d="M 0,500 0,0 250,0 250,500 0,500 Z" />
      <glyph
         glyph-name="1"
         id="glyph3569"
         unicode="1"
         d="M 0,500 0,0 l 500,0 0,250 -250,0 0,250 -250,0 z" />
      <glyph
         glyph-name="2"
         id="glyph3571"
         unicode="2"
         d="M 0,500 0,0 l 250,0 0,250 250,0 0,250 -500,0 z" />
      <glyph
         glyph-name="3"
         id="glyph3573"
         unicode="3"
         d="M 0,500 0,0 500,0 500,500 0,500 Z" />
      <glyph
         glyph-name="4"
         id="glyph3575"
         unicode="4"
         d="m 250,750 0,-250 250,0 0,250 -250,0 z M 250,500 0,500 0,0 l 250,0 0,500 z" />
      <glyph
         glyph-name="5"
         id="glyph3577"
         unicode="5"
         d="m 250,750 0,-250 250,0 0,250 -250,0 z M 250,500 0,500 0,0 l 500,0 0,250 -250,0 0,250 z" />
      <glyph
         glyph-name="6"
         id="glyph3579"
         unicode="6"
         d="M 250,750 250,500 0,500 0,0 l 250,0 0,250 250,0 0,500 -250,0 z" />
      <glyph
         glyph-name="7"
         id="glyph3581"
         unicode="7"
         d="M 250,750 250,500 0,500 0,0 l 500,0 0,750 -250,0 z" />
      <glyph
         glyph-name="8"
         id="glyph3583"
         unicode="8"
         d="m 250,1000 0,-250 250,0 0,250 -250,0 z M 0,500 0,0 250,0 250,500 0,500 Z" />
      <glyph
         glyph-name="9"
         id="glyph3585"
         unicode="9"
         d="m 250,1000 0,-250 250,0 0,250 -250,0 z M 0,500 0,0 l 500,0 0,250 -250,0 0,250 -250,0 z" />
      <glyph
         glyph-name=":"
         id="glyph3587"
         unicode=":"
         d="m 250,1000 0,-250 250,0 0,250 -250,0 z M 0,500 0,0 l 250,0 0,250 250,0 0,250 -500,0 z" />
      <glyph
         glyph-name=";"
         id="glyph3589"
         unicode=";"
         d="m 250,1000 0,-250 250,0 0,250 -250,0 z M 0,500 0,0 500,0 500,500 0,500 Z" />
      <glyph
         glyph-name="&lt;"
         id="glyph3591"
         unicode="&lt;"
         d="m 250,1000 0,-500 250,0 0,500 -250,0 z M 250,500 0,500 0,0 l 250,0 0,500 z" />
      <glyph
         glyph-name="="
         id="glyph3593"
         unicode="="
         d="m 250,1000 0,-500 250,0 0,500 -250,0 z M 250,500 0,500 0,0 l 500,0 0,250 -250,0 0,250 z" />
      <glyph
         glyph-name="&gt;"
         id="glyph3595"
         unicode="&gt;"
         d="M 250,1000 250,500 0,500 0,0 l 250,0 0,250 250,0 0,750 -250,0 z" />
      <glyph
         glyph-name="?"
         id="glyph3597"
         unicode="?"
         d="M 250,1000 250,500 0,500 0,0 l 500,0 0,1000 -250,0 z" />
      <glyph
         glyph-name="@"
         id="glyph3599"
         unicode="@"
         d="m 0,750 0,-250 250,0 0,250 -250,0 z" />
      <glyph
         glyph-name="A"
         id="glyph3601"
         unicode="A"
         d="m 0,750 0,-250 250,0 0,250 -250,0 z m 250,-500 0,-250 250,0 0,250 -250,0 z" />
      <glyph
         glyph-name="B"
         id="glyph3603"
         unicode="B"
         d="m 0,750 0,-250 250,0 0,250 -250,0 z m 250,-250 0,-250 250,0 0,250 -250,0 z" />
      <glyph
         glyph-name="C"
         id="glyph3605"
         unicode="C"
         d="m 0,750 0,-250 250,0 0,250 -250,0 z m 250,-250 0,-500 250,0 0,500 -250,0 z" />
      <glyph
         glyph-name="D"
         id="glyph3653"
         unicode="D"
         d="m 0,750 0,-250 500,0 0,250 -500,0 z" />
      <glyph
         glyph-name="E"
         id="glyph3655"
         unicode="E"
         d="m 0,750 0,-250 500,0 0,250 -500,0 z m 250,-500 0,-250 250,0 0,250 -250,0 z" />
      <glyph
         glyph-name="F"
         id="glyph3657"
         unicode="F"
         d="m 0,750 0,-250 250,0 0,-250 250,0 0,500 -500,0 z" />
      <glyph
         glyph-name="G"
         id="glyph3659"
         unicode="G"
         d="m 0,750 0,-250 250,0 0,-500 250,0 0,750 -500,0 z" />
      <glyph
         glyph-name="H"
         id="glyph3661"
         unicode="H"
         d="m 250,1000 0,-250 250,0 0,250 -250,0 z m 0,-250 -250,0 0,-250 250,0 0,250 z" />
      <glyph
         glyph-name="I"
         id="glyph3663"
         unicode="I"
         d="m 250,1000 0,-250 250,0 0,250 -250,0 z m 0,-250 -250,0 0,-250 250,0 0,250 z m 0,-500 0,-250 250,0 0,250 -250,0 z" />
      <glyph
         glyph-name="J"
         id="glyph3665"
         unicode="J"
         d="m 250,1000 0,-250 250,0 0,250 -250,0 z m 0,-250 -250,0 0,-250 250,0 0,250 z m 0,-250 0,-250 250,0 0,250 -250,0 z" />
      <glyph
         glyph-name="K"
         id="glyph3667"
         unicode="K"
         d="m 250,1000 0,-250 250,0 0,250 -250,0 z m 0,-250 -250,0 0,-250 250,0 0,250 z m 0,-250 0,-500 250,0 0,500 -250,0 z" />
      <glyph
         glyph-name="L"
         id="glyph3669"
         unicode="L"
         d="m 250,1000 0,-250 -250,0 0,-250 500,0 0,500 -250,0 z" />
      <glyph
         glyph-name="M"
         id="glyph3671"
         unicode="M"
         d="m 250,1000 0,-250 -250,0 0,-250 500,0 0,500 -250,0 z m 0,-750 0,-250 250,0 0,250 -250,0 z" />
      <glyph
         glyph-name="N"
         id="glyph3673"
         unicode="N"
         d="m 250,1000 0,-250 -250,0 0,-250 250,0 0,-250 250,0 0,750 -250,0 z" />
      <glyph
         glyph-name="O"
         id="glyph3675"
         unicode="O"
         d="m 250,1000 0,-250 -250,0 0,-250 250,0 0,-500 250,0 0,1000 -250,0 z" />
      <glyph
         glyph-name="P"
         id="glyph3677"
         unicode="P"
         d="m 0,750 0,-250 250,0 0,250 -250,0 z M 0,250 0,0 250,0 250,250 0,250 Z" />
      <glyph
         glyph-name="Q"
         id="glyph3679"
         unicode="Q"
         d="m 0,750 0,-250 250,0 0,250 -250,0 z M 0,250 0,0 500,0 500,250 0,250 Z" />
      <glyph
         glyph-name="R"
         id="glyph3681"
         unicode="R"
         d="m 0,750 0,-250 250,0 0,250 -250,0 z m 250,-250 0,-250 250,0 0,250 -250,0 z M 250,250 0,250 0,0 l 250,0 0,250 z" />
      <glyph
         glyph-name="S"
         id="glyph3683"
         unicode="S"
         d="m 0,750 0,-250 250,0 0,250 -250,0 z M 250,500 250,250 0,250 0,0 l 500,0 0,500 -250,0 z" />
      <glyph
         glyph-name="T"
         id="glyph3685"
         unicode="T"
         d="m 0,750 0,-250 500,0 0,250 -500,0 z M 0,250 0,0 250,0 250,250 0,250 Z" />
      <glyph
         glyph-name="U"
         id="glyph3687"
         unicode="U"
         d="m 0,750 0,-250 500,0 0,250 -500,0 z M 0,250 0,0 500,0 500,250 0,250 Z" />
      <glyph
         glyph-name="V"
         id="glyph3689"
         unicode="V"
         d="m 0,750 0,-250 250,0 0,-250 250,0 0,500 -500,0 z M 250,250 0,250 0,0 l 250,0 0,250 z" />
      <glyph
         glyph-name="W"
         id="glyph3691"
         unicode="W"
         d="M 0,750 0,500 250,500 250,250 0,250 0,0 500,0 500,750 0,750 Z" />
      <glyph
         glyph-name="X"
         id="glyph3693"
         unicode="X"
         d="m 250,1000 0,-250 250,0 0,250 -250,0 z m 0,-250 -250,0 0,-250 250,0 0,250 z M 0,250 0,0 250,0 250,250 0,250 Z" />
      <glyph
         glyph-name="Y"
         id="glyph3695"
         unicode="Y"
         d="m 250,1000 0,-250 250,0 0,250 -250,0 z m 0,-250 -250,0 0,-250 250,0 0,250 z M 0,250 0,0 500,0 500,250 0,250 Z" />
      <glyph
         glyph-name="Z"
         id="glyph3697"
         unicode="Z"
         d="m 250,1000 0,-250 250,0 0,250 -250,0 z m 0,-250 -250,0 0,-250 250,0 0,250 z m 0,-250 0,-250 250,0 0,250 -250,0 z M 250,250 0,250 0,0 l 250,0 0,250 z" />
      <glyph
         glyph-name="["
         id="glyph3699"
         unicode="["
         d="m 250,1000 0,-250 250,0 0,250 -250,0 z m 0,-250 -250,0 0,-250 250,0 0,250 z m 0,-250 0,-250 -250,0 0,-250 500,0 0,500 -250,0 z" />
      <glyph
         glyph-name="\"
         id="glyph3701"
         unicode="\"
         d="m 250,1000 0,-250 -250,0 0,-250 500,0 0,500 -250,0 z M 0,250 0,0 250,0 250,250 0,250 Z" />
      <glyph
         glyph-name="]"
         id="glyph3703"
         unicode="]"
         d="m 250,1000 0,-250 -250,0 0,-250 500,0 0,500 -250,0 z M 0,250 0,0 500,0 500,250 0,250 Z" />
      <glyph
         glyph-name="^"
         id="glyph3705"
         unicode="^"
         d="m 250,1000 0,-250 -250,0 0,-250 250,0 0,-250 250,0 0,750 -250,0 z M 250,250 0,250 0,0 l 250,0 0,250 z" />
      <glyph
         glyph-name="_"
         id="glyph3707"
         unicode="_"
         d="m 250,1000 0,-250 -250,0 0,-250 250,0 0,-250 -250,0 0,-250 500,0 0,1000 -250,0 z" />
      <glyph
         glyph-name="`"
         id="glyph3709"
         unicode="`"
         d="m 0,750 0,-500 250,0 0,500 -250,0 z" />
      <glyph
         glyph-name="a"
         id="glyph3711"
         unicode="a"
         d="m 0,750 0,-500 250,0 0,500 -250,0 z m 250,-500 0,-250 250,0 0,250 -250,0 z" />
      <glyph
         glyph-name="b"
         id="glyph3713"
         unicode="b"
         d="m 0,750 0,-500 500,0 0,250 -250,0 0,250 -250,0 z" />
      <glyph
         glyph-name="c"
         id="glyph3715"
         unicode="c"
         d="m 0,750 0,-500 250,0 0,-250 250,0 0,500 -250,0 0,250 -250,0 z" />
      <glyph
         glyph-name="d"
         id="glyph3717"
         unicode="d"
         d="m 0,750 0,-500 250,0 0,250 250,0 0,250 -500,0 z" />
      <glyph
         glyph-name="e"
         id="glyph3719"
         unicode="e"
         d="m 0,750 0,-500 250,0 0,250 250,0 0,250 -500,0 z m 250,-500 0,-250 250,0 0,250 -250,0 z" />
      <glyph
         glyph-name="f"
         id="glyph3721"
         unicode="f"
         d="m 0,750 0,-500 500,0 0,500 -500,0 z" />
      <glyph
         glyph-name="g"
         id="glyph3723"
         unicode="g"
         d="m 0,750 0,-500 250,0 0,-250 250,0 0,750 -500,0 z" />
      <glyph
         glyph-name="h"
         id="glyph3725"
         unicode="h"
         d="m 250,1000 0,-250 250,0 0,250 -250,0 z m 0,-250 -250,0 0,-500 250,0 0,500 z" />
      <glyph
         glyph-name="i"
         id="glyph3727"
         unicode="i"
         d="m 250,1000 0,-250 250,0 0,250 -250,0 z m 0,-250 -250,0 0,-500 250,0 0,500 z m 0,-500 0,-250 250,0 0,250 -250,0 z" />
      <glyph
         glyph-name="j"
         id="glyph3729"
         unicode="j"
         d="m 250,1000 0,-250 250,0 0,250 -250,0 z m 0,-250 -250,0 0,-500 500,0 0,250 -250,0 0,250 z" />
      <glyph
         glyph-name="k"
         id="glyph3731"
         unicode="k"
         d="m 250,1000 0,-250 250,0 0,250 -250,0 z m 0,-250 -250,0 0,-500 250,0 0,-250 250,0 0,500 -250,0 0,250 z" />
      <glyph
         glyph-name="l"
         id="glyph3733"
         unicode="l"
         d="m 250,1000 0,-250 -250,0 0,-500 250,0 0,250 250,0 0,500 -250,0 z" />
      <glyph
         glyph-name="m"
         id="glyph3735"
         unicode="m"
         d="m 250,1000 0,-250 -250,0 0,-500 250,0 0,250 250,0 0,500 -250,0 z m 0,-750 0,-250 250,0 0,250 -250,0 z" />
      <glyph
         glyph-name="n"
         id="glyph3737"
         unicode="n"
         d="m 250,1000 0,-250 -250,0 0,-500 500,0 0,750 -250,0 z" />
      <glyph
         glyph-name="o"
         id="glyph3739"
         unicode="o"
         d="m 250,1000 0,-250 -250,0 0,-500 250,0 0,-250 250,0 0,1000 -250,0 z" />
      <glyph
         glyph-name="p"
         id="glyph3741"
         unicode="p"
         d="M 0,750 0,0 250,0 250,750 0,750 Z" />
      <glyph
         glyph-name="q"
         id="glyph3743"
         unicode="q"
         d="M 0,750 0,0 l 500,0 0,250 -250,0 0,500 -250,0 z" />
      <glyph
         glyph-name="r"
         id="glyph3745"
         unicode="r"
         d="M 0,750 0,0 l 250,0 0,250 250,0 0,250 -250,0 0,250 -250,0 z" />
      <glyph
         glyph-name="s"
         id="glyph3747"
         unicode="s"
         d="M 0,750 0,0 l 500,0 0,500 -250,0 0,250 -250,0 z" />
      <glyph
         glyph-name="t"
         id="glyph3749"
         unicode="t"
         d="M 0,750 0,0 l 250,0 0,500 250,0 0,250 -500,0 z" />
      <glyph
         glyph-name="u"
         id="glyph3751"
         unicode="u"
         d="M 0,750 0,0 l 500,0 0,250 -250,0 0,250 250,0 0,250 -500,0 z" />
      <glyph
         glyph-name="v"
         id="glyph3753"
         unicode="v"
         d="M 0,750 0,0 l 250,0 0,250 250,0 0,500 -500,0 z" />
      <glyph
         glyph-name="w"
         id="glyph3755"
         unicode="w"
         d="M 0,750 0,0 500,0 500,750 0,750 Z" />
      <glyph
         glyph-name="x"
         id="glyph3757"
         unicode="x"
         d="m 250,1000 0,-250 250,0 0,250 -250,0 z M 250,750 0,750 0,0 l 250,0 0,750 z" />
      <glyph
         glyph-name="y"
         id="glyph3759"
         unicode="y"
         d="m 250,1000 0,-250 250,0 0,250 -250,0 z M 250,750 0,750 0,0 l 500,0 0,250 -250,0 0,500 z" />
      <glyph
         glyph-name="z"
         id="glyph3761"
         unicode="z"
         d="m 250,1000 0,-250 250,0 0,250 -250,0 z M 250,750 0,750 0,0 l 250,0 0,250 250,0 0,250 -250,0 0,250 z" />
      <glyph
         glyph-name="{"
         id="glyph3763"
         unicode="{"
         d="m 250,1000 0,-250 250,0 0,250 -250,0 z M 250,750 0,750 0,0 l 500,0 0,500 -250,0 0,250 z" />
      <glyph
         glyph-name="|"
         id="glyph3765"
         unicode="|"
         d="M 250,1000 250,750 0,750 0,0 l 250,0 0,500 250,0 0,500 -250,0 z" />
      <glyph
         glyph-name="}"
         id="glyph3767"
         unicode="}"
         d="M 250,1000 250,750 0,750 0,0 l 500,0 0,250 -250,0 0,250 250,0 0,500 -250,0 z" />
      <glyph
         glyph-name="~"
         id="glyph3769"
         unicode="~"
         d="M 250,1000 250,750 0,750 0,0 l 250,0 0,250 250,0 0,750 -250,0 z" />
    </font>
</defs>
</svg>
